<svg xmlns="http://www.w3.org/2000/svg" xmlns:xlink="http://www.w3.org/1999/xlink" id="svg" version="1.1" width="400" height="366.8639053254438" viewBox="0, 0, 400,366.8639053254438"><g id="svgg"><path id="path0" d="M49.315 23.657 C 46.330 24.241,45.702 25.541,45.738 31.065 C 45.753 33.425,45.781 89.342,45.801 155.325 C 45.820 221.309,45.925 276.469,46.034 277.903 C 46.278 281.106,46.419 281.259,49.330 281.498 C 60.979 282.452,73.789 284.717,88.795 288.475 C 104.058 292.298,127.170 301.429,142.160 309.558 C 153.902 315.925,174.963 329.751,176.149 331.870 C 176.427 332.366,176.019 332.158,168.935 328.185 C 145.942 315.288,110.322 303.056,84.329 299.132 C 66.623 296.458,59.957 295.865,45.211 295.649 C 38.591 295.552,32.999 295.365,32.785 295.232 C 32.466 295.035,32.370 275.572,32.249 185.841 C 32.104 79.388,32.087 76.674,31.542 76.072 C 30.709 75.151,30.014 75.112,18.935 75.362 C 7.377 75.622,7.701 75.550,6.179 78.207 L 5.473 79.438 5.320 147.189 C 5.236 184.453,5.170 237.840,5.172 265.828 L 5.178 316.716 5.816 317.899 C 7.972 321.895,6.588 321.698,34.172 321.932 C 94.196 322.441,119.836 325.326,159.024 335.983 C 171.097 339.266,180.948 342.696,193.686 348.052 C 197.614 349.704,197.144 347.560,191.541 338.258 C 178.113 315.965,161.361 298.693,138.808 283.889 C 121.738 272.683,96.163 262.126,76.036 257.976 C 72.960 257.342,71.613 256.933,71.277 256.532 C 70.285 255.348,69.929 50.823,70.917 49.835 C 72.629 48.124,103.402 54.616,119.316 60.046 C 143.552 68.316,171.341 83.729,188.314 98.317 C 193.163 102.485,192.929 100.971,187.562 93.454 C 163.552 59.825,127.472 37.288,82.476 27.815 C 69.726 25.130,52.694 22.995,49.315 23.657 M343.343 23.718 C 306.576 27.851,278.315 37.517,252.367 54.833 C 235.611 66.014,217.566 83.733,209.971 96.460 C 207.209 101.088,207.369 102.412,210.370 99.758 C 236.146 76.963,275.942 57.846,310.503 51.655 C 324.016 49.234,328.614 48.827,329.205 50.000 C 329.900 51.380,329.401 256.520,328.702 257.126 C 328.404 257.384,326.650 257.881,324.805 258.229 C 293.719 264.099,263.050 279.721,236.686 303.115 C 227.948 310.870,214.060 327.820,208.818 337.130 C 201.298 350.488,201.289 350.519,205.710 348.520 C 218.047 342.943,223.933 340.828,239.468 336.387 C 263.716 329.456,294.870 324.432,322.781 322.950 C 337.309 322.179,339.462 322.124,363.898 321.903 C 390.447 321.662,389.451 321.736,392.164 319.788 C 392.926 319.241,393.903 318.192,394.334 317.458 L 395.118 316.124 395.266 198.669 C 395.424 73.698,395.486 79.374,393.943 77.351 C 392.308 75.207,392.018 75.162,379.977 75.154 L 369.274 75.148 368.661 75.927 L 368.047 76.707 368.047 185.780 C 368.047 270.219,367.967 294.932,367.692 295.207 C 367.448 295.452,365.907 295.566,362.737 295.573 C 310.022 295.697,263.102 307.871,226.479 330.925 C 213.844 338.879,225.029 329.936,240.533 319.688 C 255.853 309.562,267.958 303.409,286.982 296.078 C 305.588 288.909,330.009 283.154,348.225 281.648 C 353.616 281.202,354.056 281.124,354.268 280.571 C 354.726 279.379,354.521 27.400,354.062 26.301 C 352.957 23.657,350.072 22.961,343.343 23.718 M391.568 76.377 C 392.787 77.050,393.687 78.069,394.143 79.294 C 394.456 80.135,394.499 102.073,394.379 198.419 L 394.231 316.513 393.314 317.650 C 390.649 320.957,390.868 320.931,364.053 321.148 C 321.388 321.493,305.540 322.631,275.236 327.522 C 254.526 330.865,225.378 338.831,212.278 344.728 C 206.774 347.206,204.682 347.996,204.392 347.705 C 204.030 347.343,205.904 344.633,206.832 344.176 C 207.224 343.983,208.543 343.367,209.763 342.808 C 210.984 342.249,216.243 338.941,221.450 335.456 C 231.894 328.466,236.271 325.907,246.102 321.044 C 270.236 309.104,305.585 299.664,333.784 297.629 C 336.174 297.457,339.503 297.189,341.180 297.035 C 342.858 296.881,349.490 296.670,355.917 296.567 C 364.871 296.424,367.751 296.288,368.236 295.986 L 368.868 295.592 368.855 186.480 C 368.841 74.093,368.821 76.135,369.910 75.980 C 372.616 75.595,390.753 75.928,391.568 76.377 M30.978 76.923 C 31.278 77.515,31.353 99.327,31.357 186.330 L 31.361 294.997 32.048 295.684 L 32.734 296.371 45.731 296.534 C 59.360 296.705,60.830 296.809,74.260 298.546 C 94.003 301.100,105.317 303.723,125.148 310.344 C 150.316 318.746,166.193 326.389,182.249 337.828 C 189.357 342.894,191.623 343.969,191.326 342.136 C 191.094 340.709,191.669 341.178,193.376 343.811 C 195.467 347.035,195.437 347.804,193.260 346.861 C 183.024 342.432,169.406 337.878,155.325 334.177 C 151.827 333.258,147.996 332.247,146.812 331.932 C 118.392 324.361,80.968 321.025,24.295 321.009 C 8.596 321.005,7.819 320.843,6.320 317.256 C 5.870 316.178,5.758 87.047,6.205 81.598 C 6.649 76.175,7.005 76.037,20.258 76.119 L 30.604 76.183 30.978 76.923 M275.444 107.946 C 271.893 108.225,270.622 109.051,269.742 111.654 C 269.271 113.046,268.309 258.058,268.755 260.435 C 269.140 262.488,269.589 262.444,275.094 259.817 C 286.309 254.465,294.499 251.293,307.372 247.316 C 311.021 246.190,314.257 245.039,314.565 244.761 C 315.107 244.270,315.155 116.340,314.614 111.910 C 314.431 110.405,313.325 108.980,311.848 108.343 C 310.709 107.853,280.797 107.527,275.444 107.946 M166.716 133.115 C 148.360 133.306,149.205 133.194,147.781 135.624 C 147.280 136.479,146.914 137.719,146.712 139.246 C 146.220 142.958,146.017 271.520,146.502 272.104 C 146.708 272.352,147.879 273.231,149.104 274.057 C 163.760 283.936,178.512 298.091,189.130 312.462 C 190.910 314.872,191.525 315.319,192.244 314.724 C 192.750 314.305,192.538 144.071,192.024 138.596 C 191.451 132.488,193.080 132.840,166.716 133.115 M210.749 154.757 C 209.618 155.091,208.435 156.429,207.949 157.923 C 207.304 159.912,206.772 312.739,207.407 313.925 C 207.951 314.941,208.788 314.591,210.103 312.796 C 220.210 298.996,232.659 287.079,251.226 273.431 C 252.621 272.405,253.948 271.220,254.174 270.798 C 254.642 269.924,254.653 255.153,254.232 193.343 L 253.994 158.432 253.254 157.101 C 251.792 154.469,252.876 154.593,230.917 154.533 C 219.691 154.503,211.296 154.596,210.749 154.757 M104.586 184.585 C 88.959 184.777,89.391 184.732,87.651 186.374 C 85.657 188.256,85.621 188.776,85.350 219.749 C 85.098 248.587,84.314 245.019,91.357 247.075 C 105.392 251.171,111.652 253.595,123.871 259.664 C 130.585 262.999,130.800 263.082,131.368 262.568 C 132.383 261.649,131.994 188.646,130.963 186.734 C 129.712 184.412,128.266 184.294,104.586 184.585 M313.950 192.234 C 314.391 192.675,314.291 243.824,313.847 244.268 C 313.632 244.483,311.593 245.199,309.317 245.859 C 297.793 249.201,285.971 253.723,274.871 259.037 C 271.428 260.685,270.208 261.144,269.915 260.901 C 269.338 260.422,269.340 192.832,269.918 192.255 C 270.360 191.813,313.508 191.792,313.950 192.234 M191.465 211.305 C 191.939 212.052,191.771 313.609,191.296 313.609 C 191.065 313.609,190.175 312.644,189.318 311.464 C 179.837 298.415,163.765 283.004,149.991 273.755 C 148.766 272.933,147.583 272.041,147.361 271.775 C 146.880 271.194,146.830 211.706,147.311 211.126 C 147.736 210.615,191.138 210.790,191.465 211.305 M130.732 220.835 C 131.132 221.082,131.490 260.318,131.101 261.317 C 130.686 262.382,130.550 262.361,127.861 260.810 C 119.506 255.991,106.062 250.572,92.899 246.717 C 89.356 245.680,86.681 244.740,86.464 244.456 C 86.007 243.855,85.922 221.297,86.376 220.843 C 86.672 220.547,130.253 220.539,130.732 220.835 M253.472 226.976 C 253.945 227.864,254.016 269.544,253.546 270.422 C 253.381 270.731,251.950 271.942,250.365 273.114 C 231.669 286.947,219.233 298.887,209.290 312.551 C 208.929 313.047,208.527 313.316,208.329 313.193 C 207.906 312.932,207.833 227.470,208.255 226.682 C 208.502 226.221,210.185 226.187,230.814 226.237 L 253.107 226.290 253.472 226.976 " stroke="none" fill="#fff" fill-rule="evenodd"/><path id="path1" d="M369.910 75.980 C 368.821 76.135,368.841 74.093,368.855 186.480 L 368.868 295.592 368.236 295.986 C 367.751 296.288,364.871 296.424,355.917 296.567 C 349.490 296.670,342.858 296.881,341.180 297.035 C 339.503 297.189,336.174 297.457,333.784 297.629 C 305.585 299.664,270.236 309.104,246.102 321.044 C 236.271 325.907,231.894 328.466,221.450 335.456 C 216.243 338.941,210.984 342.249,209.763 342.808 C 208.543 343.367,207.224 343.983,206.832 344.176 C 205.904 344.633,204.030 347.343,204.392 347.705 C 204.682 347.996,206.774 347.206,212.278 344.728 C 225.378 338.831,254.526 330.865,275.236 327.522 C 305.540 322.631,321.388 321.493,364.053 321.148 C 390.868 320.931,390.649 320.957,393.314 317.650 L 394.231 316.513 394.379 198.419 C 394.537 72.072,394.612 79.176,393.107 77.565 C 391.545 75.891,391.517 75.888,380.621 75.888 C 375.089 75.888,370.269 75.929,369.910 75.980 M8.988 76.459 C 7.245 77.221,6.442 78.704,6.205 81.598 C 5.758 87.047,5.870 316.178,6.320 317.256 C 7.819 320.843,8.596 321.005,24.295 321.009 C 80.968 321.025,118.392 324.361,146.812 331.932 C 147.996 332.247,151.827 333.258,155.325 334.177 C 169.406 337.878,183.024 342.432,193.260 346.861 C 195.437 347.804,195.467 347.035,193.376 343.811 C 191.669 341.178,191.094 340.709,191.326 342.136 C 191.623 343.969,189.357 342.894,182.249 337.828 C 166.193 326.389,150.316 318.746,125.148 310.344 C 105.317 303.723,94.003 301.100,74.260 298.546 C 60.830 296.809,59.360 296.705,45.731 296.534 L 32.734 296.371 32.048 295.684 L 31.361 294.997 31.357 186.330 C 31.353 99.327,31.278 77.515,30.978 76.923 L 30.604 76.183 20.258 76.119 C 12.053 76.068,9.720 76.138,8.988 76.459 M269.918 192.255 C 269.340 192.832,269.338 260.422,269.915 260.901 C 270.208 261.144,271.428 260.685,274.871 259.037 C 285.971 253.723,297.793 249.201,309.317 245.859 C 311.593 245.199,313.632 244.483,313.847 244.268 C 314.291 243.824,314.391 192.675,313.950 192.234 C 313.508 191.792,270.360 191.813,269.918 192.255 M147.311 211.126 C 146.830 211.706,146.880 271.194,147.361 271.775 C 147.583 272.041,148.766 272.933,149.991 273.755 C 163.765 283.004,179.837 298.415,189.318 311.464 C 190.175 312.644,191.065 313.609,191.296 313.609 C 191.771 313.609,191.939 212.052,191.465 211.305 C 191.138 210.790,147.736 210.615,147.311 211.126 M86.376 220.843 C 85.922 221.297,86.007 243.855,86.464 244.456 C 86.681 244.740,89.356 245.680,92.899 246.717 C 106.062 250.572,119.506 255.991,127.861 260.810 C 130.550 262.361,130.686 262.382,131.101 261.317 C 131.490 260.318,131.132 221.082,130.732 220.835 C 130.253 220.539,86.672 220.547,86.376 220.843 M208.255 226.682 C 207.833 227.470,207.906 312.932,208.329 313.193 C 208.527 313.316,208.929 313.047,209.290 312.551 C 219.233 298.887,231.669 286.947,250.365 273.114 C 251.950 271.942,253.381 270.731,253.546 270.422 C 254.016 269.544,253.945 227.864,253.472 226.976 L 253.107 226.290 230.814 226.237 C 210.185 226.187,208.502 226.221,208.255 226.682 " stroke="none" fill="#fff" fill-rule="evenodd"/></g></svg>